<?xml version="1.0" standalone="no"?>
<!DOCTYPE svg PUBLIC "-//W3C//DTD SVG 20010904//EN"
 "http://www.w3.org/TR/2001/REC-SVG-20010904/DTD/svg10.dtd">
<svg version="1.0" xmlns="http://www.w3.org/2000/svg"
 width="24.000000pt" height="24.000000pt" viewBox="0 0 24.000000 24.000000"
 preserveAspectRatio="xMidYMid meet">

<g transform="translate(0.000000,24.000000) scale(0.100000,-0.100000)"
fill="#FFFFFF" stroke="none">
<path d="M49 191 c-20 -16 -22 -23 -14 -47 9 -24 6 -32 -13 -51 -42 -42 -27
-58 56 -61 67 -3 74 -1 79 18 4 16 13 20 44 20 44 0 51 16 19 45 -14 13 -17
22 -10 35 13 25 -10 53 -41 48 -19 -2 -24 -9 -25 -33 0 -34 -10 -55 -25 -55
-6 0 -6 7 1 19 14 28 13 38 -10 61 -25 25 -32 25 -61 1z m59 -27 c4 -25 -20
-47 -42 -38 -16 6 -22 45 -9 58 14 14 48 1 51 -20z m90 3 c4 -20 -25 -34 -39
-20 -14 14 1 45 20 41 9 -2 17 -11 19 -21z m6 -53 c9 -3 16 -12 16 -20 0 -16
-65 -20 -75 -4 -15 24 21 39 59 24z m-86 -20 c42 -29 28 -44 -43 -44 -62 0
-65 1 -55 20 21 40 62 50 98 24z"/>
</g>
</svg>
