<svg xmlns="http://www.w3.org/2000/svg" xmlns:xlink="http://www.w3.org/1999/xlink" version="1.1" x="0px" y="0px" viewBox="0 0 64 80" style="enable-background:new 0 0 64 64;" xml:space="preserve" style="width: 36px; height: 36px; fill: #FFFFFF"><style type="text/css">
	.st0{display:none;}
	.st1{display:inline;}
</style><g class="st0"><rect x="-1951.8" y="-1012" class="st1" width="4344.8" height="2289.3"/></g><g><path d="M4.5,58C5.9,58,7,56.8,7,55.5C7,43,17.2,32.8,29.7,32.8c3.7,0,7.5,0.9,10.7,2.7c1.2,0.7,2.7,0.2,3.4-1   c0.7-1.2,0.2-2.7-1-3.4c-1.3-0.7-2.7-1.3-4.1-1.8c2.7-2.5,4.4-6,4.4-9.9C43.1,12,37.1,6,29.7,6s-13.4,6-13.4,13.4   c0,3.9,1.7,7.4,4.4,9.9C9.8,33,2,43.4,2,55.5C2,56.8,3.1,58,4.5,58z M21.3,19.4c0-4.6,3.8-8.4,8.4-8.4s8.4,3.8,8.4,8.4   s-3.8,8.4-8.4,8.4S21.3,24,21.3,19.4z M39.7,43.1h19.8c1.4,0,2.5,1.1,2.5,2.5s-1.1,2.5-2.5,2.5H39.7c-1.4,0-2.5-1.1-2.5-2.5   S38.4,43.1,39.7,43.1z"/></g></svg>